<?xml version="1.0" encoding="utf-8"?>
<!-- Generator: Adobe Illustrator 28.2.0, SVG Export Plug-In . SVG Version: 6.00 Build 0)  -->
<svg version="1.1" id="Layer_1" xmlns="http://www.w3.org/2000/svg" xmlns:xlink="http://www.w3.org/1999/xlink" x="0px" y="0px"
	 viewBox="0 0 237.8 44" style="enable-background:new 0 0 237.8 44;" xml:space="preserve">
<style type="text/css">
	.st0{fill:#50922C;}
	.st1{fill:#115177;}
	.st2{fill:#005F21;}
	.st3{fill:#404040;}
</style>
<g>
	<g>
		<path id="Path_6" class="st0" d="M125.6,17.1c-16.2,6.5-25.8-0.5-34.7-8.9s-16-10.3-31.3,8.9C76.1-4.9,83-1.6,91.4,4.8
			S106.5,20.3,125.6,17.1z"/>
		<path id="Path_7" class="st1" d="M106.2,21c21.7,10.1,47.5-24.3,71.9-2C153.3-9.4,135.4,27.8,106.2,21z"/>
		<path id="Path_8" class="st2" d="M125.1,15.1c-17.3,3.1-13.4-19.6-30.7-9.3C112.5-9.8,108.6,13.8,125.1,15.1z"/>
	</g>
	<g>
		<path class="st3" d="M28.2,25.2c-0.2,0-0.5,0.1-0.8,0.2c-0.3,0.1-0.6,0.2-0.8,0.4c-0.3,0.2-0.6,0.4-0.8,0.7
			c-0.2,0.3-0.4,0.6-0.5,1.1c-0.7,2.1-1.4,4.6-2.3,7.5s-1.8,5.9-2.8,9.1h-1.3l-5-15.2L8.7,44.2H7.5c-0.9-3.2-1.9-6.6-2.8-10.1
			s-1.6-5.8-2-7c-0.1-0.3-0.2-0.5-0.4-0.8c-0.2-0.2-0.4-0.4-0.7-0.6c-0.2-0.2-0.5-0.3-0.8-0.4S0.2,25.3,0,25.2l0-1l8,0l0,1
			c-0.7,0-1.3,0.1-1.8,0.2c-0.5,0.1-0.7,0.3-0.7,0.5c0,0.1,0,0.2,0,0.4c0,0.2,0.1,0.3,0.1,0.4c0.2,0.8,0.6,2.2,1.1,4
			c0.5,1.9,1.3,4.7,2.4,8.4L14,24.5h1.4l5,14.9c0.7-2.3,1.2-4.3,1.7-6c0.5-1.7,0.9-3.2,1.2-4.4c0.2-0.9,0.4-1.5,0.4-1.8
			c0.1-0.3,0.1-0.6,0.1-0.8c0-0.3-0.2-0.6-0.6-0.8c-0.4-0.2-1.1-0.4-2.1-0.4l0-1l7.1,0L28.2,25.2z"/>
		<path class="st3" d="M35.5,43.9l-6.6,0V43c0.2,0,0.4,0,0.7-0.1c0.2,0,0.4-0.1,0.6-0.1c0.3-0.1,0.5-0.2,0.6-0.4
			c0.1-0.2,0.2-0.5,0.2-0.8l0-8.4c0-0.3-0.1-0.6-0.2-0.8c-0.1-0.2-0.3-0.4-0.6-0.6c-0.2-0.1-0.4-0.2-0.8-0.3s-0.6-0.1-0.9-0.1v-0.9
			l4.8-0.3l0.2,0.2l0,11.1c0,0.3,0.1,0.6,0.2,0.8c0.1,0.2,0.3,0.4,0.6,0.5c0.2,0.1,0.4,0.2,0.6,0.2C35,43,35.2,43,35.5,43V43.9z
			 M33.7,24.7c0,0.5-0.2,1-0.5,1.4c-0.3,0.4-0.8,0.6-1.3,0.6c-0.5,0-0.9-0.2-1.2-0.6c-0.3-0.4-0.5-0.8-0.5-1.3c0-0.5,0.2-1,0.5-1.3
			s0.8-0.6,1.2-0.6c0.5,0,1,0.2,1.3,0.5S33.7,24.2,33.7,24.7z"/>
		<path class="st3" d="M43.8,43.9h-6.7V43c0.2,0,0.4,0,0.7-0.1c0.2,0,0.4-0.1,0.6-0.1c0.3-0.1,0.5-0.2,0.6-0.4s0.2-0.5,0.2-0.8
			l0-15.8c0-0.3-0.1-0.6-0.2-0.9c-0.1-0.3-0.3-0.5-0.6-0.7c-0.2-0.1-0.5-0.2-0.9-0.3c-0.4-0.1-0.8-0.1-1.1-0.2v-0.9l5.1-0.3l0.2,0.2
			l0,18.8c0,0.3,0.1,0.6,0.2,0.8c0.1,0.2,0.3,0.4,0.6,0.5c0.2,0.1,0.4,0.2,0.6,0.2c0.2,0,0.4,0.1,0.7,0.1V43.9z"/>
		<path class="st3" d="M60,43.7L55.2,44L55,43.8v-1.3l-0.1,0c-0.5,0.5-1.1,1-1.8,1.3c-0.7,0.3-1.4,0.5-2.2,0.5
			c-0.8,0-1.5-0.2-2.2-0.5c-0.7-0.3-1.4-0.8-1.9-1.5c-0.5-0.6-1-1.4-1.3-2.3c-0.3-0.9-0.5-1.9-0.5-3c0-1,0.2-1.9,0.5-2.8
			c0.3-0.9,0.8-1.7,1.4-2.3c0.6-0.6,1.3-1.1,2.1-1.5c0.8-0.4,1.7-0.6,2.5-0.6c0.6,0,1.3,0.1,1.9,0.2c0.6,0.2,1.1,0.4,1.6,0.6l0-4.8
			c0-0.4-0.1-0.7-0.2-1.1c-0.1-0.3-0.3-0.6-0.5-0.7c-0.3-0.2-0.6-0.3-1-0.4c-0.4-0.1-0.9-0.1-1.4-0.2v-0.9l5.6-0.3l0.2,0.2l0,18.4
			c0,0.3,0.1,0.6,0.2,0.8c0.1,0.2,0.3,0.4,0.5,0.6c0.2,0.1,0.4,0.2,0.8,0.2c0.3,0,0.6,0,0.9,0.1V43.7z M54.9,41.3l0-8
			c-0.1-0.2-0.2-0.5-0.4-0.8c-0.2-0.3-0.4-0.5-0.6-0.8c-0.3-0.2-0.6-0.4-0.9-0.6c-0.4-0.2-0.8-0.2-1.3-0.2c-0.6,0-1.1,0.1-1.5,0.4
			c-0.5,0.3-0.9,0.7-1.2,1.2c-0.3,0.5-0.6,1.2-0.8,2c-0.2,0.8-0.3,1.7-0.3,2.7c0,0.8,0.1,1.5,0.2,2.1c0.1,0.6,0.4,1.2,0.7,1.8
			c0.3,0.5,0.7,0.9,1.2,1.2c0.5,0.3,1.1,0.5,1.8,0.5c0.7,0,1.3-0.2,1.8-0.5C54.2,42,54.6,41.7,54.9,41.3z"/>
		<path class="st3" d="M73,40.7c-0.6,1.1-1.3,2-2.3,2.6c-1,0.6-2.1,1-3.3,1c-1.1,0-2.1-0.2-2.9-0.6c-0.8-0.4-1.5-0.9-2-1.6
			s-0.9-1.4-1.2-2.3C61,38.9,60.8,38,60.8,37c0-0.9,0.1-1.8,0.4-2.6c0.3-0.9,0.7-1.6,1.2-2.3c0.5-0.7,1.2-1.2,2-1.6s1.7-0.6,2.6-0.6
			c1,0,1.9,0.2,2.6,0.5s1.3,0.7,1.7,1.3c0.4,0.5,0.7,1.1,0.9,1.8c0.2,0.7,0.3,1.5,0.3,2.3v0.9l-9.1,0c0,0.9,0.1,1.7,0.3,2.4
			c0.2,0.7,0.4,1.4,0.8,1.9c0.4,0.5,0.8,1,1.4,1.3c0.6,0.3,1.3,0.5,2.1,0.5c0.8,0,1.5-0.2,2.1-0.6c0.6-0.4,1.2-1.1,1.7-2.1L73,40.7z
			 M69.9,35.5c0-0.5,0-1.1-0.1-1.7c-0.1-0.6-0.2-1.1-0.4-1.5c-0.2-0.4-0.5-0.8-0.9-1c-0.4-0.3-0.8-0.4-1.4-0.4c-1,0-1.8,0.4-2.4,1.2
			c-0.6,0.8-1,1.9-1,3.4H69.9z"/>
		<path class="st3" d="M84.7,32c0,0.5-0.1,0.9-0.3,1.3c-0.2,0.4-0.6,0.5-1.1,0.5c-0.5,0-0.9-0.1-1.2-0.4c-0.3-0.3-0.4-0.6-0.4-0.9
			c0-0.2,0-0.4,0-0.6c0-0.2,0.1-0.3,0.1-0.5c-0.4,0-0.9,0.2-1.5,0.5c-0.6,0.4-1.1,0.9-1.5,1.5l0,8c0,0.3,0.1,0.6,0.2,0.8
			c0.1,0.2,0.3,0.4,0.6,0.5c0.2,0.1,0.5,0.2,0.9,0.2s0.7,0.1,0.9,0.1v0.9h-7.2V43c0.2,0,0.4,0,0.7-0.1c0.2,0,0.4-0.1,0.6-0.1
			c0.3-0.1,0.5-0.2,0.6-0.4s0.2-0.5,0.2-0.8l0-8.4c0-0.3-0.1-0.6-0.2-0.8c-0.1-0.3-0.3-0.5-0.6-0.7c-0.2-0.1-0.4-0.2-0.6-0.2
			s-0.5-0.1-0.8-0.1v-0.9l4.5-0.3l0.2,0.2v1.9h0.1c0.6-0.7,1.2-1.3,1.9-1.7s1.3-0.6,1.9-0.6c0.6,0,1.1,0.2,1.4,0.6
			C84.5,30.9,84.7,31.4,84.7,32z"/>
		<path class="st3" d="M101.4,43.9h-6.7V43c0.2,0,0.4,0,0.7-0.1c0.3,0,0.5-0.1,0.6-0.1c0.3-0.1,0.5-0.2,0.6-0.4s0.2-0.5,0.2-0.8l0-7
			c0-1-0.2-1.7-0.7-2.2c-0.5-0.5-1-0.8-1.7-0.8c-0.5,0-0.9,0.1-1.3,0.2s-0.8,0.3-1.1,0.6c-0.3,0.2-0.5,0.4-0.7,0.7
			c-0.2,0.2-0.3,0.4-0.4,0.6l0,7.9c0,0.3,0.1,0.6,0.2,0.8c0.1,0.2,0.3,0.4,0.6,0.5c0.2,0.1,0.4,0.2,0.6,0.2c0.2,0,0.5,0.1,0.7,0.1
			l0,0.9l-6.7,0V43c0.2,0,0.4,0,0.7-0.1c0.2,0,0.4-0.1,0.6-0.1c0.3-0.1,0.5-0.2,0.6-0.4s0.2-0.5,0.2-0.8l0-8.4
			c0-0.3-0.1-0.6-0.2-0.9c-0.1-0.3-0.3-0.5-0.6-0.6c-0.2-0.1-0.4-0.2-0.6-0.2c-0.2-0.1-0.5-0.1-0.8-0.1v-0.9l4.5-0.3l0.2,0.2v1.9H91
			c0.2-0.2,0.5-0.5,0.8-0.8c0.3-0.3,0.6-0.6,0.9-0.8c0.3-0.2,0.7-0.4,1.2-0.6c0.5-0.1,1-0.2,1.6-0.2c1.3,0,2.3,0.4,2.9,1.2
			s0.9,1.9,0.9,3.3l0,7.1c0,0.3,0.1,0.6,0.2,0.8c0.1,0.2,0.3,0.4,0.6,0.5c0.2,0.1,0.4,0.2,0.6,0.2s0.4,0.1,0.7,0.1V43.9z"/>
		<path class="st3" d="M114.7,40.7c-0.6,1.1-1.3,2-2.3,2.6c-1,0.6-2.1,1-3.3,1c-1.1,0-2.1-0.2-2.9-0.6c-0.8-0.4-1.5-0.9-2-1.6
			s-0.9-1.4-1.2-2.3c-0.3-0.9-0.4-1.8-0.4-2.8c0-0.9,0.1-1.8,0.4-2.6c0.3-0.9,0.7-1.6,1.2-2.3c0.5-0.7,1.2-1.2,2-1.6
			s1.7-0.6,2.6-0.6c1,0,1.9,0.2,2.6,0.5s1.3,0.7,1.7,1.3c0.4,0.5,0.7,1.1,0.9,1.8c0.2,0.7,0.3,1.5,0.3,2.3v0.9h-9.1
			c0,0.9,0.1,1.7,0.3,2.4c0.2,0.7,0.4,1.4,0.8,1.9c0.4,0.5,0.8,1,1.4,1.3c0.6,0.3,1.3,0.5,2.1,0.5c0.8,0,1.5-0.2,2.1-0.6
			c0.6-0.4,1.2-1.1,1.7-2.1L114.7,40.7z M111.6,35.5c0-0.5,0-1.1-0.1-1.7c-0.1-0.6-0.2-1.1-0.4-1.5c-0.2-0.4-0.5-0.8-0.9-1
			c-0.4-0.3-0.8-0.4-1.4-0.4c-1,0-1.8,0.4-2.4,1.2c-0.6,0.8-1,1.9-1,3.4H111.6z"/>
		<path class="st3" d="M125.5,37.2c0.4,0.3,0.7,0.7,0.9,1.2s0.3,1,0.3,1.6c0,1.3-0.5,2.3-1.4,3.1s-2.2,1.2-3.7,1.2
			c-0.8,0-1.5-0.1-2.2-0.4c-0.7-0.3-1.1-0.6-1.4-0.8l-0.3,0.9h-1l-0.1-4.8h1c0.1,0.4,0.2,0.8,0.5,1.3c0.2,0.5,0.5,0.9,0.9,1.3
			c0.4,0.4,0.8,0.8,1.3,1c0.5,0.3,1.1,0.4,1.7,0.4c0.9,0,1.6-0.2,2.1-0.6c0.5-0.4,0.7-1,0.7-1.7c0-0.4-0.1-0.7-0.2-1
			c-0.2-0.3-0.4-0.5-0.7-0.7c-0.3-0.2-0.7-0.4-1.1-0.6s-0.9-0.3-1.5-0.5c-0.4-0.1-0.9-0.3-1.4-0.5c-0.5-0.2-1-0.5-1.4-0.8
			c-0.4-0.3-0.7-0.7-1-1.2c-0.3-0.5-0.4-1-0.4-1.7c0-1.1,0.4-2.1,1.2-2.8c0.8-0.8,1.9-1.2,3.3-1.2c0.5,0,1.1,0.1,1.6,0.2
			c0.6,0.1,1,0.3,1.4,0.5l0.3-0.7h1l0.2,4.4h-1c-0.2-1-0.6-1.8-1.3-2.4c-0.6-0.6-1.4-0.9-2.4-0.9c-0.8,0-1.4,0.2-1.8,0.6
			s-0.7,0.8-0.7,1.4c0,0.4,0.1,0.8,0.2,1s0.4,0.5,0.6,0.7c0.3,0.2,0.6,0.4,1,0.5s0.9,0.3,1.6,0.5c0.6,0.2,1.2,0.4,1.7,0.7
			C124.7,36.6,125.1,36.9,125.5,37.2z"/>
		<path class="st3" d="M137.8,37.2c0.4,0.3,0.7,0.7,0.9,1.2c0.2,0.4,0.3,1,0.3,1.6c0,1.3-0.5,2.3-1.4,3.1s-2.2,1.2-3.7,1.2
			c-0.8,0-1.5-0.1-2.2-0.4c-0.7-0.3-1.1-0.6-1.4-0.8L130,44h-1l-0.1-4.8h1c0.1,0.4,0.2,0.8,0.5,1.3c0.2,0.5,0.5,0.9,0.9,1.3
			c0.4,0.4,0.8,0.8,1.3,1c0.5,0.3,1.1,0.4,1.7,0.4c0.9,0,1.6-0.2,2.1-0.6c0.5-0.4,0.7-1,0.7-1.7c0-0.4-0.1-0.7-0.2-1
			c-0.2-0.3-0.4-0.5-0.7-0.7c-0.3-0.2-0.7-0.4-1.1-0.6c-0.4-0.2-0.9-0.3-1.5-0.5c-0.4-0.1-0.9-0.3-1.4-0.5c-0.5-0.2-1-0.5-1.4-0.8
			c-0.4-0.3-0.7-0.7-1-1.2c-0.3-0.5-0.4-1-0.4-1.7c0-1.1,0.4-2.1,1.2-2.8s1.9-1.2,3.3-1.2c0.5,0,1.1,0.1,1.6,0.2s1,0.3,1.4,0.5
			l0.3-0.7h1l0.2,4.4h-1c-0.2-1-0.6-1.8-1.3-2.4c-0.6-0.6-1.4-0.9-2.4-0.9c-0.8,0-1.4,0.2-1.8,0.6c-0.4,0.4-0.7,0.8-0.7,1.4
			c0,0.4,0.1,0.8,0.2,1c0.1,0.3,0.4,0.5,0.6,0.7c0.3,0.2,0.6,0.4,1,0.5c0.4,0.2,0.9,0.3,1.6,0.5c0.6,0.2,1.2,0.4,1.7,0.7
			C137,36.6,137.5,36.9,137.8,37.2z"/>
		<path class="st0" d="M156.9,43.9H148l0-1c0.2,0,0.6,0,1.1-0.1c0.5,0,0.8-0.1,1-0.2c0.3-0.1,0.5-0.3,0.7-0.5
			c0.1-0.2,0.2-0.5,0.2-0.9l0-14.3c0-0.3-0.1-0.6-0.2-0.8s-0.3-0.4-0.7-0.5c-0.3-0.1-0.6-0.2-1-0.3s-0.8-0.2-1-0.2v-1l8.9,0v1
			c-0.3,0-0.6,0-1,0.1c-0.4,0.1-0.7,0.1-1,0.2c-0.4,0.1-0.6,0.3-0.7,0.5s-0.2,0.5-0.2,0.8l0,14.2c0,0.3,0.1,0.6,0.2,0.8
			c0.1,0.2,0.4,0.4,0.7,0.6c0.2,0.1,0.5,0.2,0.9,0.2c0.4,0.1,0.8,0.1,1.1,0.1V43.9z"/>
		<path class="st0" d="M169.4,32c0,0.5-0.1,0.9-0.3,1.3c-0.2,0.4-0.6,0.5-1.1,0.5c-0.5,0-0.9-0.1-1.2-0.4c-0.3-0.3-0.4-0.6-0.4-0.9
			c0-0.2,0-0.4,0-0.6c0-0.2,0.1-0.3,0.1-0.5c-0.4,0-0.9,0.2-1.5,0.5s-1.1,0.9-1.5,1.5l0,8c0,0.3,0.1,0.6,0.2,0.8
			c0.1,0.2,0.3,0.4,0.6,0.5c0.2,0.1,0.5,0.2,0.9,0.2c0.4,0,0.7,0.1,0.9,0.1v0.9H159V43c0.2,0,0.4,0,0.7-0.1c0.2,0,0.4-0.1,0.6-0.1
			c0.3-0.1,0.5-0.2,0.6-0.4c0.1-0.2,0.2-0.5,0.2-0.8v-8.4c0-0.3-0.1-0.6-0.2-0.8c-0.1-0.3-0.3-0.5-0.6-0.7c-0.2-0.1-0.4-0.2-0.6-0.2
			c-0.2-0.1-0.5-0.1-0.8-0.1v-0.9l4.5-0.3l0.2,0.2v1.9h0.1c0.6-0.7,1.2-1.3,1.9-1.7c0.7-0.4,1.3-0.6,1.9-0.6s1.1,0.2,1.4,0.6
			S169.4,31.4,169.4,32z"/>
		<path class="st0" d="M182.7,40.7c-0.6,1.1-1.3,2-2.3,2.6c-1,0.6-2.1,1-3.3,1c-1.1,0-2.1-0.2-2.9-0.6c-0.8-0.4-1.5-0.9-2-1.6
			s-0.9-1.4-1.2-2.3c-0.3-0.9-0.4-1.8-0.4-2.8c0-0.9,0.1-1.8,0.4-2.6c0.3-0.9,0.7-1.6,1.2-2.3c0.5-0.7,1.2-1.2,2-1.6
			c0.8-0.4,1.7-0.6,2.6-0.6c1,0,1.9,0.2,2.6,0.5c0.7,0.3,1.3,0.7,1.7,1.3c0.4,0.5,0.7,1.1,0.9,1.8c0.2,0.7,0.3,1.5,0.3,2.3v0.9h-9.1
			c0,0.9,0.1,1.7,0.3,2.4c0.2,0.7,0.4,1.4,0.8,1.9c0.4,0.5,0.8,1,1.4,1.3c0.6,0.3,1.3,0.5,2.1,0.5c0.8,0,1.5-0.2,2.1-0.6
			c0.6-0.4,1.2-1.1,1.7-2.1L182.7,40.7z M179.6,35.5c0-0.5,0-1.1-0.1-1.7c-0.1-0.6-0.2-1.1-0.4-1.5c-0.2-0.4-0.5-0.8-0.9-1
			c-0.4-0.3-0.8-0.4-1.4-0.4c-1,0-1.8,0.4-2.4,1.2c-0.6,0.8-1,1.9-1,3.4H179.6z"/>
		<path class="st0" d="M190.4,43.9h-6.7V43c0.2,0,0.4,0,0.7-0.1c0.2,0,0.4-0.1,0.6-0.1c0.3-0.1,0.5-0.2,0.6-0.4
			c0.1-0.2,0.2-0.5,0.2-0.8l0-15.8c0-0.3-0.1-0.6-0.2-0.9c-0.1-0.3-0.3-0.5-0.6-0.7c-0.2-0.1-0.5-0.2-0.9-0.3
			c-0.4-0.1-0.8-0.1-1.1-0.2v-0.9l5.1-0.3l0.2,0.2l0,18.8c0,0.3,0.1,0.6,0.2,0.8s0.3,0.4,0.6,0.5c0.2,0.1,0.4,0.2,0.6,0.2
			c0.2,0,0.4,0.1,0.7,0.1V43.9z"/>
		<path class="st0" d="M204.9,43.7c-0.4,0.2-0.8,0.3-1.1,0.4s-0.7,0.1-1.1,0.1c-0.7,0-1.3-0.2-1.7-0.5c-0.4-0.3-0.7-0.8-0.8-1.5H200
			c-0.6,0.7-1.2,1.2-1.9,1.5c-0.7,0.4-1.5,0.5-2.5,0.5c-1,0-1.9-0.3-2.5-0.9c-0.7-0.6-1-1.5-1-2.5c0-0.5,0.1-1,0.2-1.4
			s0.4-0.8,0.7-1.1c0.2-0.3,0.5-0.5,0.9-0.7c0.4-0.2,0.7-0.4,1.1-0.5c0.4-0.2,1.3-0.4,2.5-0.9c1.3-0.4,2.1-0.8,2.6-1v-1.4
			c0-0.1,0-0.4-0.1-0.7c-0.1-0.3-0.2-0.7-0.3-1c-0.2-0.3-0.4-0.6-0.8-0.9c-0.3-0.3-0.8-0.4-1.4-0.4c-0.4,0-0.8,0.1-1.2,0.2
			s-0.6,0.3-0.8,0.5c0,0.2,0,0.5,0.1,0.8c0.1,0.4,0.1,0.7,0.1,1c0,0.3-0.1,0.6-0.4,0.9c-0.3,0.3-0.7,0.4-1.2,0.4
			c-0.5,0-0.8-0.2-1-0.5s-0.3-0.7-0.3-1.1c0-0.4,0.2-0.8,0.5-1.2c0.3-0.4,0.7-0.7,1.2-1c0.4-0.3,0.9-0.5,1.5-0.7
			c0.6-0.2,1.2-0.3,1.7-0.3c0.8,0,1.5,0.1,2,0.2c0.6,0.1,1.1,0.3,1.6,0.7c0.5,0.3,0.8,0.8,1.1,1.4c0.2,0.6,0.4,1.3,0.4,2.3
			c0,1.3,0,2.5,0,3.5c0,1,0,2.1,0,3.3c0,0.4,0.1,0.6,0.2,0.9c0.1,0.2,0.3,0.4,0.6,0.5c0.1,0.1,0.4,0.1,0.7,0.1c0.3,0,0.6,0,0.9,0
			V43.7z M200.1,36.4c-0.8,0.2-1.5,0.5-2.1,0.7c-0.6,0.2-1.1,0.5-1.7,0.8c-0.5,0.3-0.8,0.7-1.1,1.1c-0.3,0.4-0.4,0.9-0.4,1.5
			c0,0.8,0.2,1.3,0.6,1.7c0.4,0.4,0.9,0.5,1.5,0.5c0.7,0,1.2-0.2,1.7-0.5c0.5-0.3,0.9-0.7,1.3-1.1L200.1,36.4z"/>
		<path class="st0" d="M221.7,43.9H215V43c0.2,0,0.4,0,0.7-0.1c0.3,0,0.5-0.1,0.6-0.1c0.3-0.1,0.5-0.2,0.6-0.4
			c0.1-0.2,0.2-0.5,0.2-0.8l0-7c0-1-0.2-1.7-0.7-2.2c-0.5-0.5-1-0.8-1.7-0.8c-0.5,0-0.9,0.1-1.3,0.2c-0.4,0.2-0.8,0.3-1.1,0.6
			c-0.3,0.2-0.5,0.4-0.7,0.7c-0.2,0.2-0.3,0.4-0.4,0.6v7.9c0,0.3,0.1,0.6,0.2,0.8c0.1,0.2,0.3,0.4,0.6,0.5c0.2,0.1,0.4,0.2,0.6,0.2
			c0.2,0,0.5,0.1,0.7,0.1v0.9l-6.7,0V43c0.2,0,0.4,0,0.7-0.1c0.2,0,0.4-0.1,0.6-0.1c0.3-0.1,0.5-0.2,0.6-0.4
			c0.1-0.2,0.2-0.5,0.2-0.8v-8.4c0-0.3-0.1-0.6-0.2-0.9c-0.1-0.3-0.3-0.5-0.6-0.6c-0.2-0.1-0.4-0.2-0.6-0.2s-0.5-0.1-0.8-0.1v-0.9
			l4.5-0.3l0.2,0.2v1.9h0.1c0.2-0.2,0.5-0.5,0.8-0.8c0.3-0.3,0.6-0.6,0.9-0.8c0.3-0.2,0.7-0.4,1.2-0.6c0.5-0.1,1-0.2,1.6-0.2
			c1.3,0,2.3,0.4,2.9,1.2c0.6,0.8,0.9,1.9,0.9,3.3l0,7.1c0,0.3,0.1,0.6,0.2,0.8c0.1,0.2,0.3,0.4,0.6,0.5c0.2,0.1,0.4,0.2,0.6,0.2
			c0.2,0,0.4,0.1,0.7,0.1V43.9z"/>
		<path class="st0" d="M237.8,43.7L233,44l-0.2-0.2v-1.3l-0.1,0c-0.5,0.5-1.1,1-1.8,1.3s-1.4,0.5-2.2,0.5c-0.8,0-1.5-0.2-2.2-0.5
			c-0.7-0.3-1.4-0.8-1.9-1.5c-0.5-0.6-1-1.4-1.3-2.3c-0.3-0.9-0.5-1.9-0.5-3c0-1,0.2-1.9,0.5-2.8c0.3-0.9,0.8-1.7,1.4-2.3
			c0.6-0.6,1.3-1.1,2.1-1.5c0.8-0.4,1.7-0.6,2.5-0.6c0.6,0,1.3,0.1,1.9,0.2c0.6,0.2,1.1,0.4,1.6,0.6V26c0-0.4-0.1-0.7-0.2-1.1
			c-0.1-0.3-0.3-0.6-0.5-0.7c-0.3-0.2-0.6-0.3-1-0.4c-0.4-0.1-0.9-0.1-1.4-0.2v-0.9l5.6-0.3l0.2,0.2l0,18.4c0,0.3,0.1,0.6,0.2,0.8
			c0.1,0.2,0.3,0.4,0.5,0.6c0.2,0.1,0.4,0.2,0.8,0.2c0.3,0,0.6,0,0.9,0.1V43.7z M232.7,41.3v-8c-0.1-0.2-0.2-0.5-0.4-0.8
			c-0.2-0.3-0.4-0.5-0.6-0.8c-0.3-0.2-0.6-0.4-0.9-0.6c-0.4-0.2-0.8-0.2-1.3-0.2c-0.6,0-1.1,0.1-1.5,0.4c-0.5,0.3-0.9,0.7-1.2,1.2
			c-0.3,0.5-0.6,1.2-0.8,2c-0.2,0.8-0.3,1.7-0.3,2.7c0,0.8,0.1,1.5,0.2,2.1c0.1,0.6,0.4,1.2,0.7,1.8c0.3,0.5,0.7,0.9,1.2,1.2
			c0.5,0.3,1.1,0.5,1.8,0.5c0.7,0,1.3-0.2,1.8-0.5S232.4,41.7,232.7,41.3z"/>
	</g>
</g>
</svg>
